Coordinates
version=1
nRows=13
nColumns=40
inDegrees=yes

Units are S.I. units (second, meters, Newtons, ...)
Angles are in degrees.

endheader
time	pelvis_tilt	pelvis_list	pelvis_rotation	pelvis_tx	pelvis_ty	pelvis_tz	hip_flexion_r	hip_adduction_r	hip_rotation_r	knee_angle_r	knee_angle_r_beta	ankle_angle_r	subtalar_angle_r	mtp_angle_r	hip_flexion_l	hip_adduction_l	hip_rotation_l	knee_angle_l	knee_angle_l_beta	ankle_angle_l	subtalar_angle_l	mtp_angle_l	lumbar_extension	lumbar_bending	lumbar_rotation	arm_flex_r	arm_add_r	arm_rot_r	elbow_flex_r	pro_sup_r	wrist_flex_r	wrist_dev_r	arm_flex_l	arm_add_l	arm_rot_l	elbow_flex_l	pro_sup_l	wrist_flex_l	wrist_dev_l
      6.31664286	     -4.26403883	     -5.38534754	      5.35762421	      0.90045379	      0.92005039	      0.49541393	     -0.48991768	      4.96186814	    -17.62733310	     10.18760665	     10.18760665	     16.73228389	      2.12625260	     -4.91729367	     32.93381181	     -7.67050861	     -5.64653093	     22.53667125	     22.53667125	      6.53000893	    -10.50846721	     11.54177062	     -8.32609214	      7.85178843	      4.45992314	     30.99272972	    -17.41845611	    -11.17847958	    107.57551922	     42.87241960	      0.00000000	      0.00000000	    -10.18355596	     -7.14104366	      0.53437331	     22.78177696	     44.25661845	      0.00000000	      0.00000000
      6.32828571	     -4.25917336	     -5.38948551	      5.41547897	      0.90187847	      0.91880477	      0.49357580	     -0.96002311	      4.84914178	    -17.61886121	     10.55995157	     10.55995157	     17.95561689	      2.38084519	     -2.73903193	     32.30261959	     -7.48153545	     -5.67495732	     22.65862210	     22.65862210	      4.84210281	    -11.59852614	      8.63762768	     -8.09451497	      7.77157903	      5.00209954	     29.92339751	    -17.69519838	    -11.67626191	    109.41647853	     43.01203487	      0.00000000	      0.00000000	     -9.78045254	     -7.30092204	      0.34818216	     23.61367482	     44.43900652	      0.00000000	      0.00000000
      6.33992857	     -4.28846167	     -5.29481160	      5.45611888	      0.90329169	      0.91760589	      0.49173548	     -1.48772964	      4.66186899	    -17.52472581	     10.66911127	     10.66911127	     18.32784199	      2.29537042	     -2.79398162	     31.86144007	     -7.28002744	     -5.81891864	     23.17660129	     23.17660129	      4.60195341	    -11.87643214	      8.60742284	     -7.75691266	      7.55300447	      4.89607999	     29.53881072	    -17.42266887	    -11.48682286	    109.42702818	     43.01017204	      0.00000000	      0.00000000	     -9.39172954	     -7.39362444	      0.33898063	     23.77285121	     44.45241396	      0.00000000	      0.00000000
      6.35157143	     -4.27205748	     -5.15716992	      5.48569052	      0.90478338	      0.91658887	      0.48991070	     -1.99836173	      4.40831585	    -17.41545888	     10.92266953	     10.92266953	     18.65812732	      2.14891075	     -2.77452596	     31.41365198	     -7.03329010	     -5.79225957	     23.74611105	     23.74611105	      4.45695093	    -12.28650589	      8.43896539	     -7.48883297	      7.26583177	      4.82740779	     28.88721775	    -17.10163590	    -11.22053592	    109.43136783	     43.00756594	      0.00000000	      0.00000000	     -9.01102001	     -7.53997335	      0.29939996	     23.99332004	     44.47247876	      0.00000000	      0.00000000
      6.36321429	     -4.31976354	     -5.00349747	      5.46721965	      0.90618542	      0.91564903	      0.48811806	     -2.31270860	      4.09632437	    -17.21959155	     11.41643457	     11.41643457	     19.14578372	      1.85138681	     -2.65222717	     31.01623372	     -6.74706090	     -5.58611857	     24.21043507	     24.21043507	      4.33013954	    -12.89949927	      8.05201447	     -7.19136333	      6.91952930	      4.76712611	     28.01486931	    -16.92019491	    -10.92449064	    109.43520940	     43.01145594	      0.00000000	      0.00000000	     -8.57303884	     -7.68420043	      0.20204794	     24.38170411	     44.50833954	      0.00000000	      0.00000000
      6.37485714	     -4.38277145	     -4.83424748	      5.53654469	      0.90750915	      0.91507146	      0.48604642	     -2.69700452	      3.77895287	    -17.15807749	     11.70762801	     11.70762801	     19.30733270	      1.64311050	     -2.60903379	     30.64573241	     -6.42627000	     -5.40737639	     24.61801371	     24.61801371	      4.51283086	    -13.13772103	      7.78145435	     -6.92335631	      6.68555906	      4.56881627	     27.45230427	    -16.71080653	    -10.74297577	    109.33352245	     43.01136116	      0.00000000	      0.00000000	     -7.94983987	     -7.72186244	      0.17833763	     24.68170474	     44.52642366	      0.00000000	      0.00000000
      6.38650000	     -4.51862503	     -4.54513309	      5.51142240	      0.90849600	      0.91458163	      0.48410871	     -2.42196185	      3.18036908	    -16.73079217	     13.12301919	     13.12301919	     19.83343199	      0.66393501	     -2.16504339	     30.35296283	     -5.94525346	     -5.05603813	     24.94331494	     24.94331494	      4.26509281	    -14.12117151	      6.87177616	     -6.61480442	      6.17197070	      4.76519554	     26.11496694	    -16.81635397	    -10.41415854	    108.97066821	     43.04517900	      0.00000000	      0.00000000	     -7.32853748	     -7.90022766	     -0.10331909	     25.36111331	     44.60954740	      0.00000000	      0.00000000
      6.39814286	     -4.50980417	     -4.32013486	      5.52131965	      0.90951869	      0.91469418	      0.48214960	     -2.47952428	      2.71148187	    -16.47302658	     14.14480781	     14.14480781	     19.99785362	      0.02953743	     -1.96389446	     29.92607467	     -5.60062828	     -4.84552937	     25.29056028	     25.29056028	      4.49559866	    -14.57129292	      6.20657742	     -6.50979490	      5.76928940	      4.68256044	     25.02662903	    -16.59818932	    -10.13304479	    108.49694734	     43.07133872	      0.00000000	      0.00000000	     -6.58859283	     -7.98627297	     -0.26083339	     25.74702875	     44.66507772	      0.00000000	      0.00000000
      6.40978571	     -4.55029556	     -4.08754817	      5.55092706	      0.91027342	      0.91504206	      0.48010648	     -2.23598334	      2.17112988	    -16.17762538	     15.59283686	     15.59283686	     20.06945182	     -0.87335165	     -1.91083099	     29.52858816	     -5.23056419	     -4.63833155	     25.53530881	     25.53530881	      4.78795517	    -14.95919772	      5.57544004	     -6.39369426	      5.37031363	      4.61667756	     23.90757334	    -16.47323292	     -9.83236812	    107.75435241	     43.10937185	      0.00000000	      0.00000000	     -5.66144738	     -8.04190300	     -0.43824748	     26.09931944	     44.72951844	      0.00000000	      0.00000000
      6.42142857	     -4.55542314	     -3.86037817	      5.55008453	      0.91085113	      0.91574593	      0.47808736	     -1.85154216	      1.58763015	    -15.87682016	     17.33321675	     17.33321675	     19.95313395	     -1.86746854	     -2.07725826	     29.05397781	     -4.89700167	     -4.51989240	     25.69877246	     25.69877246	      5.21701889	    -15.22460541	      5.06917918	     -6.36050545	      4.95620167	      4.55545170	     22.71102473	    -16.30665973	     -9.47836011	    106.82328749	     43.14822393	      0.00000000	      0.00000000	     -4.64655058	     -8.06747045	     -0.58626287	     26.37964763	     44.78814023	      0.00000000	      0.00000000
      6.43307143	     -4.50191437	     -3.65252580	      5.52292813	      0.91136514	      0.91674082	      0.47611614	     -1.38651141	      1.00094919	    -15.56061827	     19.31121424	     19.31121424	     19.72687484	     -2.85528098	     -2.45559859	     28.46903255	     -4.61525006	     -4.50812054	     25.78279367	     25.78279367	      5.69274824	    -15.37759922	      4.68956793	     -6.38277488	      4.60849345	      4.47886061	     21.46147922	    -16.09799892	     -9.09523332	    105.78586870	     43.18334421	      0.00000000	      0.00000000	     -3.57278166	     -8.10407726	     -0.69311823	     26.63357711	     44.83669121	      0.00000000	      0.00000000
      6.44471429	     -4.58640643	     -3.47486636	      5.49178878	      0.91150279	      0.91770247	      0.47414300	     -0.45973665	      0.36838384	    -15.23137744	     21.78512939	     21.78512939	     19.20885323	     -4.19977560	     -3.15180942	     27.95672162	     -4.34078854	     -4.53144416	     25.67303074	     25.67303074	      6.15479803	    -15.43406702	      4.31119624	     -6.29290138	      4.27272183	      4.43368553	     20.28174003	    -16.01833247	     -8.70398507	    104.36551469	     43.23846359	      0.00000000	      0.00000000	     -2.35271993	     -8.07195576	     -0.81944139	     26.80248574	     44.89544197	      0.00000000	      0.00000000
      6.45635714	     -4.57370003	     -3.28619962	      5.41144016	      0.91155695	      0.91890546	      0.47227409	      0.51519458	     -0.30649424	    -14.90940055	     24.50281929	     24.50281929	     18.48982750	     -5.50045924	     -3.98416748	     27.29143107	     -4.10740725	     -4.70890404	     25.49721930	     25.49721930	      6.61301277	    -15.36594717	      3.97797237	     -6.34444412	      3.93179616	      4.37616146	     19.03419699	    -15.82820474	     -8.26942068	    102.89548666	     43.28858127	      0.00000000	      0.00000000	     -1.09720835	     -8.06230657	     -0.90996691	     27.00715627	     44.94507551	      0.00000000	      0.00000000
